<svg width="48" height="48" viewBox="0 0 48 48" fill="none" xmlns="http://www.w3.org/2000/svg">
<path d="M13.997 32.5929C18.396 32.5929 21.9952 28.9337 21.9952 24.4946C21.9952 22.1751 20.8555 19.9756 18.576 18.116C16.2965 16.2564 14.5768 13.497 13.997 10.5977C13.4171 13.497 11.7175 16.2764 9.41795 18.116C7.11845 19.9556 5.9987 22.1951 5.9987 24.4946C5.9987 28.9337 9.59791 32.5929 13.997 32.5929Z" stroke="white" stroke-width="3.99913" stroke-linecap="round" stroke-linejoin="round"/>
<path d="M25.1145 13.1971C26.4898 10.9999 27.4646 8.57623 27.9939 6.0387C28.9937 11.0376 31.993 15.8366 35.9922 19.0359C39.9913 22.2352 41.9909 26.0343 41.9909 30.0335C42.0023 32.7975 41.1928 35.5026 39.665 37.806C38.1371 40.1093 35.9598 41.9072 33.409 42.9717C30.8582 44.0361 28.0487 44.3192 25.3368 43.785C22.6249 43.2509 20.1327 41.9236 18.176 39.9713" stroke="white" stroke-width="3.99913" stroke-linecap="round" stroke-linejoin="round"/>
</svg>
