<svg width="20" height="20" viewBox="0 0 20 20" fill="none" xmlns="http://www.w3.org/2000/svg">
<path d="M9.99636 2.49902C9.00216 3.49322 8.44362 4.84165 8.44362 6.24766C8.44362 7.65367 9.00216 9.0021 9.99636 9.9963C10.9906 10.9905 12.339 11.549 13.745 11.549C15.151 11.549 16.4994 10.9905 17.4936 9.9963C17.4936 11.4791 17.0539 12.9286 16.2301 14.1616C15.4063 15.3945 14.2354 16.3554 12.8654 16.9229C11.4955 17.4903 9.98804 17.6388 8.53372 17.3495C7.07939 17.0602 5.7435 16.3462 4.69499 15.2977C3.64648 14.2492 2.93243 12.9133 2.64315 11.4589C2.35386 10.0046 2.50233 8.49716 3.06978 7.12721C3.63723 5.75727 4.59818 4.58635 5.8311 3.76254C7.06402 2.93873 8.51354 2.49902 9.99636 2.49902Z" stroke="#45556C" stroke-width="1.66606" stroke-linecap="round" stroke-linejoin="round"/>
</svg>
