<svg width="24" height="24" viewBox="0 0 24 24" fill="none" xmlns="http://www.w3.org/2000/svg">
<path d="M15.9965 20.9954V18.9959C15.9965 17.9352 15.5751 16.918 14.8252 16.1681C14.0752 15.4181 13.058 14.9967 11.9973 14.9967H5.99864C4.93801 14.9967 3.92081 15.4181 3.17083 16.1681C2.42085 16.918 1.99951 17.9352 1.99951 18.9959V20.9954" stroke="#155DFC" stroke-width="1.99957" stroke-linecap="round" stroke-linejoin="round"/>
<path d="M8.99803 10.9976C11.2067 10.9976 12.9972 9.20715 12.9972 6.99849C12.9972 4.78983 11.2067 2.99936 8.99803 2.99936C6.78937 2.99936 4.9989 4.78983 4.9989 6.99849C4.9989 9.20715 6.78937 10.9976 8.99803 10.9976Z" stroke="#155DFC" stroke-width="1.99957" stroke-linecap="round" stroke-linejoin="round"/>
<path d="M15.9966 10.9976L17.9961 12.9972L21.9953 8.99805" stroke="#155DFC" stroke-width="1.99957" stroke-linecap="round" stroke-linejoin="round"/>
</svg>
