<svg width="24" height="24" viewBox="0 0 24 24" fill="none" xmlns="http://www.w3.org/2000/svg">
<path d="M21.7253 17.9961L13.727 3.99915C13.5526 3.69142 13.2997 3.43546 12.9941 3.25738C12.6885 3.0793 12.3411 2.98547 11.9874 2.98547C11.6337 2.98547 11.2863 3.0793 10.9807 3.25738C10.6751 3.43546 10.4222 3.69142 10.2478 3.99915L2.24951 17.9961C2.07323 18.3014 1.98079 18.6479 1.98157 19.0004C1.98235 19.3529 2.07632 19.699 2.25395 20.0035C2.43158 20.308 2.68656 20.5601 2.99304 20.7343C3.29952 20.9085 3.64661 20.9986 3.99912 20.9955H19.9956C20.3465 20.9951 20.691 20.9024 20.9947 20.7268C21.2984 20.5512 21.5505 20.2987 21.7258 19.9948C21.901 19.6909 21.9933 19.3462 21.9932 18.9954C21.9931 18.6446 21.9007 18.2999 21.7253 17.9961Z" stroke="#E7000B" stroke-width="1.99957" stroke-linecap="round" stroke-linejoin="round"/>
<path d="M11.9974 8.99805V12.998" stroke="#E7000B" stroke-width="1.99957" stroke-linecap="round" stroke-linejoin="round"/>
<path d="M11.9974 16.9963H12.0074" stroke="#E7000B" stroke-width="1.99957" stroke-linecap="round" stroke-linejoin="round"/>
</svg>
