<svg width="17" height="15" viewBox="0 0 17 15" fill="none" xmlns="http://www.w3.org/2000/svg">
<path d="M1.05068 11.934C0.941853 12.0532 0.870037 12.2016 0.843964 12.3609C0.817891 12.5203 0.838686 12.6837 0.903818 12.8315C0.96895 12.9792 1.07561 13.1048 1.21083 13.1931C1.34605 13.2813 1.50399 13.3283 1.66545 13.3285H14.9939C15.1554 13.3285 15.3134 13.2817 15.4487 13.1936C15.584 13.1055 15.6908 12.98 15.7561 12.8324C15.8214 12.6848 15.8424 12.5213 15.8165 12.362C15.7906 12.2026 15.719 12.0542 15.6104 11.9348C14.5024 10.7927 13.3279 9.57899 13.3279 5.83119C13.3279 4.50559 12.8013 3.23428 11.8639 2.29694C10.9266 1.3596 9.65529 0.833008 8.32969 0.833008C7.00409 0.833008 5.73279 1.3596 4.79545 2.29694C3.85811 3.23428 3.33151 4.50559 3.33151 5.83119C3.33151 9.57899 2.15611 10.7927 1.05068 11.934Z" stroke="white" stroke-width="1.66606" stroke-linecap="round" stroke-linejoin="round"/>
</svg>
