<svg width="20" height="20" viewBox="0 0 20 20" fill="none" xmlns="http://www.w3.org/2000/svg">
<g clip-path="url(#clip0_14_1442)">
<path d="M8.55356 17.4937C8.69979 17.7469 8.91011 17.9572 9.16337 18.1034C9.41664 18.2496 9.70393 18.3266 9.99637 18.3266C10.2888 18.3266 10.5761 18.2496 10.8294 18.1034C11.0826 17.9572 11.2929 17.7469 11.4392 17.4937" stroke="#155DFC" stroke-width="1.66606" stroke-linecap="round" stroke-linejoin="round"/>
<path d="M2.71734 12.767C2.60852 12.8863 2.5367 13.0346 2.51063 13.1939C2.48456 13.3533 2.50535 13.5167 2.57048 13.6645C2.63561 13.8122 2.74228 13.9378 2.87749 14.0261C3.01271 14.1143 3.17066 14.1614 3.33212 14.1615H16.6606C16.822 14.1615 16.98 14.1147 17.1153 14.0266C17.2506 13.9385 17.3574 13.8131 17.4227 13.6654C17.488 13.5178 17.509 13.3543 17.4832 13.195C17.4573 13.0356 17.3857 12.8872 17.277 12.7678C16.1691 11.6257 14.9945 10.412 14.9945 6.6642C14.9945 5.3386 14.4679 4.06729 13.5306 3.12995C12.5933 2.19261 11.322 1.66602 9.99636 1.66602C8.67076 1.66602 7.39945 2.19261 6.46211 3.12995C5.52477 4.06729 4.99818 5.3386 4.99818 6.6642C4.99818 10.412 3.82277 11.6257 2.71734 12.767Z" stroke="#155DFC" stroke-width="1.66606" stroke-linecap="round" stroke-linejoin="round"/>
</g>
<defs>
<clipPath id="clip0_14_1442">
<rect width="19.9927" height="19.9927" fill="white"/>
</clipPath>
</defs>
</svg>
