<svg width="20" height="20" viewBox="0 0 20 20" fill="none" xmlns="http://www.w3.org/2000/svg">
<path d="M16.6606 10.8295C16.6606 14.9946 13.745 17.0772 10.2796 18.2851C10.0981 18.3466 9.90101 18.3437 9.72147 18.2768C6.24773 17.0772 3.33212 14.9946 3.33212 10.8295V4.99827C3.33212 4.77733 3.41989 4.56545 3.57611 4.40923C3.73234 4.253 3.94422 4.16524 4.16515 4.16524C5.83121 4.16524 7.91379 3.1656 9.36326 1.89939C9.53974 1.74861 9.76424 1.66577 9.99637 1.66577C10.2285 1.66577 10.453 1.74861 10.6295 1.89939C12.0873 3.17393 14.1615 4.16524 15.8276 4.16524C16.0485 4.16524 16.2604 4.253 16.4166 4.40923C16.5728 4.56545 16.6606 4.77733 16.6606 4.99827V10.8295Z" stroke="#9810FA" stroke-width="1.66606" stroke-linecap="round" stroke-linejoin="round"/>
</svg>
