<svg width="20" height="20" viewBox="0 0 20 20" fill="none" xmlns="http://www.w3.org/2000/svg">
<path d="M9.99635 18.3266C14.597 18.3266 18.3267 14.597 18.3267 9.99632C18.3267 5.39562 14.597 1.66602 9.99635 1.66602C5.39565 1.66602 1.66605 5.39562 1.66605 9.99632C1.66605 14.597 5.39565 18.3266 9.99635 18.3266Z" stroke="#E17100" stroke-width="1.66606" stroke-linecap="round" stroke-linejoin="round"/>
<path d="M7.57224 7.49718C7.76808 6.94044 8.15465 6.47098 8.66347 6.17194C9.17228 5.8729 9.77051 5.76359 10.3522 5.86337C10.9339 5.96314 11.4615 6.26557 11.8416 6.71707C12.2217 7.16858 12.4297 7.74003 12.4288 8.33021C12.4288 9.99627 9.92971 10.8293 9.92971 10.8293" stroke="#E17100" stroke-width="1.66606" stroke-linecap="round" stroke-linejoin="round"/>
<path d="M9.99637 14.1616H10.0047" stroke="#E17100" stroke-width="1.66606" stroke-linecap="round" stroke-linejoin="round"/>
</svg>
