<svg width="24" height="24" viewBox="0 0 24 24" fill="none" xmlns="http://www.w3.org/2000/svg">
<path d="M12.2173 1.99951H11.7774C11.2471 1.99951 10.7385 2.21018 10.3635 2.58517C9.98852 2.96016 9.77785 3.46876 9.77785 3.99908V4.17904C9.77749 4.52969 9.68493 4.87408 9.50945 5.17766C9.33397 5.48124 9.08174 5.73334 8.77807 5.90866L8.34816 6.15861C8.04419 6.33411 7.69938 6.4265 7.34838 6.4265C6.99738 6.4265 6.65257 6.33411 6.3486 6.15861L6.19863 6.07862C5.7398 5.81395 5.19469 5.74214 4.68296 5.87898C4.17124 6.01581 3.73472 6.3501 3.46922 6.80847L3.24927 7.18838C2.98459 7.64722 2.91279 8.19233 3.04962 8.70405C3.18646 9.21578 3.52075 9.6523 3.97911 9.91779L4.12908 10.0178C4.43129 10.1922 4.68258 10.4428 4.85797 10.7444C5.03337 11.0461 5.12676 11.3884 5.12886 11.7374V12.2473C5.13026 12.5996 5.03853 12.9461 4.86297 13.2516C4.6874 13.5571 4.43422 13.8107 4.12908 13.9869L3.97911 14.0769C3.52075 14.3424 3.18646 14.7789 3.04962 15.2906C2.91279 15.8023 2.98459 16.3475 3.24927 16.8063L3.46922 17.1862C3.73472 17.6446 4.17124 17.9789 4.68296 18.1157C5.19469 18.2525 5.7398 18.1807 6.19863 17.9161L6.3486 17.8361C6.65257 17.6606 6.99738 17.5682 7.34838 17.5682C7.69938 17.5682 8.04419 17.6606 8.34816 17.8361L8.77807 18.086C9.08174 18.2613 9.33397 18.5134 9.50945 18.817C9.68493 19.1206 9.77749 19.465 9.77785 19.8156V19.9956C9.77785 20.5259 9.98852 21.0345 10.3635 21.4095C10.7385 21.7845 11.2471 21.9952 11.7774 21.9952H12.2173C12.7476 21.9952 13.2562 21.7845 13.6312 21.4095C14.0062 21.0345 14.2169 20.5259 14.2169 19.9956V19.8156C14.2172 19.465 14.3098 19.1206 14.4853 18.817C14.6608 18.5134 14.913 18.2613 15.2167 18.086L15.6466 17.8361C15.9505 17.6606 16.2954 17.5682 16.6464 17.5682C16.9974 17.5682 17.3422 17.6606 17.6461 17.8361L17.7961 17.9161C18.2549 18.1807 18.8001 18.2525 19.3118 18.1157C19.8235 17.9789 20.26 17.6446 20.5255 17.1862L20.7455 16.7963C21.0101 16.3375 21.082 15.7924 20.9451 15.2806C20.8083 14.7689 20.474 14.3324 20.0156 14.0669L19.8657 13.9869C19.5605 13.8107 19.3073 13.5571 19.1318 13.2516C18.9562 12.9461 18.8645 12.5996 18.8659 12.2473V11.7474C18.8645 11.395 18.9562 11.0486 19.1318 10.7431C19.3073 10.4376 19.5605 10.1839 19.8657 10.0078L20.0156 9.91779C20.474 9.6523 20.8083 9.21578 20.9451 8.70405C21.082 8.19233 21.0101 7.64722 20.7455 7.18838L20.5255 6.80847C20.26 6.3501 19.8235 6.01581 19.3118 5.87898C18.8001 5.74214 18.2549 5.81395 17.7961 6.07862L17.6461 6.15861C17.3422 6.33411 16.9974 6.4265 16.6464 6.4265C16.2954 6.4265 15.9505 6.33411 15.6466 6.15861L15.2167 5.90866C14.913 5.73334 14.6608 5.48124 14.4853 5.17766C14.3098 4.87408 14.2172 4.52969 14.2169 4.17904V3.99908C14.2169 3.46876 14.0062 2.96016 13.6312 2.58517C13.2562 2.21018 12.7476 1.99951 12.2173 1.99951Z" stroke="#45556C" stroke-width="1.99957" stroke-linecap="round" stroke-linejoin="round"/>
<path d="M11.9974 14.9967C13.6539 14.9967 14.9967 13.6539 14.9967 11.9974C14.9967 10.3409 13.6539 8.99805 11.9974 8.99805C10.3409 8.99805 8.99805 10.3409 8.99805 11.9974C8.99805 13.6539 10.3409 14.9967 11.9974 14.9967Z" stroke="#45556C" stroke-width="1.99957" stroke-linecap="round" stroke-linejoin="round"/>
</svg>
