<svg width="22" height="22" viewBox="0 0 22 22" fill="none" xmlns="http://www.w3.org/2000/svg">
<path d="M10.5245 1.29459C10.5683 1.20607 10.636 1.13155 10.7199 1.07946C10.8038 1.02736 10.9006 0.999756 10.9994 0.999756C11.0982 0.999756 11.195 1.02736 11.2789 1.07946C11.3628 1.13155 11.4305 1.20607 11.4743 1.29459L13.7838 5.97257C13.9359 6.28047 14.1605 6.54685 14.4383 6.74885C14.716 6.95085 15.0386 7.08244 15.3784 7.13232L20.5433 7.88815C20.6412 7.90233 20.7331 7.94361 20.8087 8.00732C20.8844 8.07104 20.9406 8.15464 20.9712 8.24868C21.0018 8.34272 21.0055 8.44344 20.9818 8.53945C20.9581 8.63545 20.908 8.72292 20.8372 8.79195L17.1021 12.4292C16.8557 12.6692 16.6714 12.9655 16.565 13.2926C16.4586 13.6197 16.4333 13.9677 16.4912 14.3068L17.373 19.4456C17.3903 19.5435 17.3797 19.6442 17.3425 19.7363C17.3053 19.8284 17.243 19.9081 17.1626 19.9665C17.0822 20.0249 16.9871 20.0595 16.888 20.0664C16.7889 20.0733 16.6898 20.0522 16.6022 20.0055L11.9852 17.578C11.6809 17.4183 11.3425 17.3348 10.9989 17.3348C10.6553 17.3348 10.3168 17.4183 10.0126 17.578L5.3966 20.0055C5.30895 20.0519 5.21004 20.0728 5.11111 20.0658C5.01219 20.0587 4.91722 20.0241 4.83702 19.9657C4.75681 19.9074 4.69458 19.8277 4.65742 19.7358C4.62025 19.6439 4.60963 19.5433 4.62677 19.4456L5.50758 14.3078C5.56576 13.9686 5.54055 13.6203 5.43413 13.293C5.32771 12.9657 5.14326 12.6693 4.89671 12.4292L1.16152 8.79295C1.09013 8.724 1.03954 8.63638 1.01551 8.54008C0.991489 8.44378 0.994994 8.34267 1.02563 8.24826C1.05626 8.15386 1.1128 8.06995 1.18879 8.00611C1.26478 7.94226 1.35718 7.90105 1.45546 7.88715L6.61933 7.13232C6.95952 7.08283 7.28258 6.95141 7.56071 6.74939C7.83885 6.54736 8.06372 6.28077 8.21599 5.97257L10.5245 1.29459Z" stroke="#D08700" stroke-width="1.99957" stroke-linecap="round" stroke-linejoin="round"/>
</svg>
