<svg width="24" height="24" viewBox="0 0 24 24" fill="none" xmlns="http://www.w3.org/2000/svg">
<path d="M13.997 17.9961V5.99871C13.997 5.46839 13.7863 4.9598 13.4113 4.5848C13.0363 4.20981 12.5277 3.99915 11.9974 3.99915H3.99914C3.46882 3.99915 2.96022 4.20981 2.58523 4.5848C2.21024 4.9598 1.99957 5.46839 1.99957 5.99871V16.9963C1.99957 17.2615 2.10491 17.5158 2.2924 17.7033C2.4799 17.8908 2.7342 17.9961 2.99936 17.9961H4.99892" stroke="#F54900" stroke-width="1.99957" stroke-linecap="round" stroke-linejoin="round"/>
<path d="M14.9967 17.9961H8.99805" stroke="#F54900" stroke-width="1.99957" stroke-linecap="round" stroke-linejoin="round"/>
<path d="M18.9959 17.9961H20.9954C21.2606 17.9961 21.5149 17.8908 21.7024 17.7033C21.8899 17.5158 21.9952 17.2615 21.9952 16.9963V13.3471C21.9948 13.1202 21.9173 12.9002 21.7753 12.7233L18.296 8.37421C18.2025 8.25712 18.0839 8.16254 17.9489 8.09747C17.8139 8.0324 17.666 7.9985 17.5162 7.99829H13.997" stroke="#F54900" stroke-width="1.99957" stroke-linecap="round" stroke-linejoin="round"/>
<path d="M16.9967 19.9966C18.1013 19.9966 18.9967 19.1012 18.9967 17.9966C18.9967 16.892 18.1013 15.9966 16.9967 15.9966C15.8922 15.9966 14.9967 16.892 14.9967 17.9966C14.9967 19.1012 15.8922 19.9966 16.9967 19.9966Z" stroke="#F54900" stroke-width="1.99957" stroke-linecap="round" stroke-linejoin="round"/>
<path d="M6.99892 19.9966C8.10349 19.9966 8.99892 19.1012 8.99892 17.9966C8.99892 16.892 8.10349 15.9966 6.99892 15.9966C5.89435 15.9966 4.99892 16.892 4.99892 17.9966C4.99892 19.1012 5.89435 19.9966 6.99892 19.9966Z" stroke="#F54900" stroke-width="1.99957" stroke-linecap="round" stroke-linejoin="round"/>
</svg>
