<svg width="24" height="24" viewBox="0 0 24 24" fill="none" xmlns="http://www.w3.org/2000/svg">
<path d="M13.9969 17.9961V5.99871C13.9969 5.46839 13.7862 4.9598 13.4112 4.5848C13.0363 4.20981 12.5277 3.99915 11.9973 3.99915H3.99908C3.46876 3.99915 2.96016 4.20981 2.58517 4.5848C2.21018 4.9598 1.99951 5.46839 1.99951 5.99871V16.9963C1.99951 17.2615 2.10485 17.5158 2.29234 17.7033C2.47984 17.8908 2.73414 17.9961 2.99929 17.9961H4.99886" stroke="#9810FA" stroke-width="1.99957" stroke-linecap="round" stroke-linejoin="round"/>
<path d="M14.9967 17.9961H8.99805" stroke="#9810FA" stroke-width="1.99957" stroke-linecap="round" stroke-linejoin="round"/>
<path d="M18.9959 17.9961H20.9954C21.2606 17.9961 21.5149 17.8908 21.7024 17.7033C21.8899 17.5158 21.9952 17.2615 21.9952 16.9963V13.3471C21.9948 13.1202 21.9172 12.9002 21.7753 12.7232L18.296 8.37418C18.2025 8.25708 18.0839 8.16251 17.9489 8.09744C17.8139 8.03237 17.666 7.99847 17.5162 7.99826H13.9969" stroke="#9810FA" stroke-width="1.99957" stroke-linecap="round" stroke-linejoin="round"/>
<path d="M16.9967 19.9965C18.1013 19.9965 18.9967 19.1011 18.9967 17.9965C18.9967 16.892 18.1013 15.9965 16.9967 15.9965C15.8921 15.9965 14.9967 16.892 14.9967 17.9965C14.9967 19.1011 15.8921 19.9965 16.9967 19.9965Z" stroke="#9810FA" stroke-width="1.99957" stroke-linecap="round" stroke-linejoin="round"/>
<path d="M6.9989 19.9965C8.10347 19.9965 8.9989 19.1011 8.9989 17.9965C8.9989 16.892 8.10347 15.9965 6.9989 15.9965C5.89433 15.9965 4.9989 16.892 4.9989 17.9965C4.9989 19.1011 5.89433 19.9965 6.9989 19.9965Z" stroke="#9810FA" stroke-width="1.99957" stroke-linecap="round" stroke-linejoin="round"/>
</svg>
